<svg width="14" height="14" viewBox="0 0 14 15" fill="none" xmlns="http://www.w3.org/2000/svg">
  <path d="M2.63579 14.1871L7.87909 11.2065L13.1224 8.22593C13.4685 7.98511 13.6499 7.74429 13.6665 7.38294C13.6499 7.02133 13.4685 6.78051 13.1224 6.53969L7.87909 3.55909L2.63579 0.578492C2.43804 0.457955 2.19056 0.382811 1.95994 0.382811L1.89393 0.382811C1.6796 0.382811 1.46527 0.44308 1.26724 0.54823C1.00347 0.69903 0.82201 0.924716 0.723133 1.18066C0.640829 1.43661 0.640829 1.72257 0.772573 1.97852C1.06949 2.6107 1.59702 3.36341 2.04225 4.26667C2.50405 5.1548 2.88327 6.19347 2.88327 7.38294C2.88327 8.57215 2.50405 9.61083 2.04225 10.499C1.59702 11.4022 1.06949 12.1549 0.772573 12.7871C0.64083 13.0431 0.64083 13.329 0.723134 13.585C0.822011 13.8409 1.00347 14.0666 1.26724 14.2174C1.46527 14.3225 1.6796 14.3828 1.89393 14.3828L1.95994 14.3828C2.19056 14.3828 2.43804 14.3077 2.63579 14.1871Z" fill="currentColor" />
</svg>
