<svg width="18" height="18" viewBox="0 0 18 19" fill="none" xmlns="http://www.w3.org/2000/svg">
  <path d="M2.7267 18.7344L9.98666 14.6893L17.2466 10.6442C17.7258 10.3174 17.9771 9.99058 18 9.50017C17.9771 9.00942 17.7258 8.68259 17.2466 8.35577L9.98666 4.31067L2.7267 0.265568C2.45289 0.101981 2.11023 6.94564e-07 1.79091 7.08522e-07L1.69951 7.12517e-07C1.40275 7.25489e-07 1.10599 0.0817955 0.831786 0.224498C0.466571 0.429154 0.215316 0.735442 0.0784084 1.0828C-0.0355518 1.43016 -0.0355499 1.81824 0.146863 2.1656C0.557973 3.02356 1.2884 4.0451 1.90487 5.27095C2.54429 6.47627 3.06936 7.88589 3.06936 9.50018C3.06936 11.1141 2.54429 12.5237 1.90487 13.729C1.2884 14.9549 0.557974 15.9764 0.146864 16.8344C-0.0355492 17.1818 -0.0355511 17.5698 0.0784091 17.9172C0.215317 18.2646 0.466572 18.5708 0.831787 18.7755C1.10599 18.9182 1.40275 19 1.69951 19L1.79091 19C2.11023 19 2.45289 18.898 2.7267 18.7344Z" fill="currentColor" />
</svg>
