<svg width="14" height="14" viewBox="0 0 13 14" fill="none" xmlns="http://www.w3.org/2000/svg">
  <path d="M11.0307 0.19568L5.78741 3.17628L0.544106 6.15688C0.198036 6.3977 0.0165733 6.63852 8.34726e-08 6.99987C0.0165733 7.36148 0.198036 7.6023 0.544106 7.84312L5.78741 10.8237L11.0307 13.8043C11.2285 13.9249 11.4759 14 11.7066 14L11.7726 14C11.9869 14 12.2012 13.9397 12.3993 13.8346C12.663 13.6838 12.8445 13.4581 12.9434 13.2021C13.0257 12.9462 13.0257 12.6602 12.8939 12.4043C12.597 11.7721 12.0695 11.0194 11.6243 10.1161C11.1625 9.22801 10.7832 8.18934 10.7832 6.99987C10.7832 5.81066 11.1625 4.77199 11.6243 3.88386C12.0695 2.9806 12.597 2.22788 12.8939 1.59571C13.0257 1.33976 13.0257 1.0538 12.9434 0.797853C12.8445 0.541904 12.663 0.316217 12.3993 0.165418C12.2012 0.0602684 11.9869 -1.42942e-07 11.7726 -1.40387e-07L11.7066 -1.39599e-07C11.4759 -1.36849e-07 11.2285 0.0751432 11.0307 0.19568Z" fill="currentColor" />
</svg>
