<svg width="23" height="22" viewBox="0 0 23 22" fill="none" xmlns="http://www.w3.org/2000/svg">
  <path d="M4.44155 13H17.5773C18.5901 13 19.0965 13 19.4997 12.8112C19.8548 12.6448 20.1532 12.3777 20.3577 12.0432C20.5899 11.6633 20.6458 11.16 20.7577 10.1534L21.3427 4.88835C21.3769 4.58088 21.3939 4.42715 21.3445 4.30816C21.3011 4.20366 21.2235 4.11697 21.1244 4.06228C21.0116 4 20.8569 4 20.5476 4H3.94155M1.44141 1H2.68985C2.95447 1 3.08678 1 3.19029 1.05032C3.28142 1.09463 3.35694 1.16557 3.40684 1.25376C3.46353 1.35394 3.47178 1.48599 3.48829 1.7501L4.39453 16.2499C4.41103 16.514 4.41929 16.6461 4.47597 16.7462C4.52587 16.8344 4.60139 16.9054 4.69252 16.9497C4.79603 17 4.92834 17 5.19297 17H18.4414M6.94141 20.5H6.95141M15.9414 20.5H15.9514M7.44141 20.5C7.44141 20.7761 7.21755 21 6.94141 21C6.66526 21 6.44141 20.7761 6.44141 20.5C6.44141 20.2239 6.66526 20 6.94141 20C7.21755 20 7.44141 20.2239 7.44141 20.5ZM16.4414 20.5C16.4414 20.7761 16.2175 21 15.9414 21C15.6653 21 15.4414 20.7761 15.4414 20.5C15.4414 20.2239 15.6653 20 15.9414 20C16.2175 20 16.4414 20.2239 16.4414 20.5Z" stroke="currentColor" stroke-width="2" stroke-linecap="round" stroke-linejoin="round"/>
</svg>
