<svg width="162" height="27" viewBox="0 0 162 27" fill="none" xmlns="http://www.w3.org/2000/svg">
<g clip-path="url(#clip0_5690_8803)">
<path d="M18.9535 8.04615C18.9535 11.3298 16.7545 12.8296 16.7545 12.8296C16.7545 12.8296 19.4576 14.5017 19.4667 18.307C19.4827 23.6074 16.7158 26.5254 9.77899 26.544L0.0684324 26.572L0 0.449515L10.4588 0.419241C16.1957 0.405268 18.933 3.26041 18.9535 8.04615ZM6.35053 6.32748L6.36193 10.3959H10.4496C11.873 10.3959 12.6212 9.60646 12.6167 8.33725C12.6167 7.25435 12.0509 6.32282 10.737 6.32748H6.35053ZM6.38702 20.694H9.91129C12.3475 20.694 12.9451 19.7904 12.9428 18.2231C12.9428 16.9539 12.4114 15.9106 10.461 15.9153L6.38702 15.9176V20.694Z" fill="currentColor"/>
<path d="M37.9229 26.4672L31.5131 26.4835L31.4424 0.361028L37.8659 0.344727L37.9229 26.4672Z" fill="currentColor"/>
<path d="M90.3878 26.2343L83.9779 26.2506L83.9072 0.128118L90.3307 0.111816L90.3878 26.2343Z" fill="currentColor"/>
<path d="M60.6265 19.4994L65.6448 0.267898L72.2805 0.249268L64.3264 26.3927L56.979 26.4136L48.8789 0.314475L55.4781 0.295844L60.6265 19.4994Z" fill="currentColor"/>
<path d="M124.143 0.104736L124.189 17.4568C124.205 22.6827 119.64 26.6138 113.454 26.6301C107.156 26.6464 102.646 22.7409 102.633 17.5174L102.587 0.165286L108.997 0.146655L109.036 17.2333C109.036 19.5109 110.844 20.8103 113.431 20.8034C116.018 20.7964 117.815 19.5225 117.809 17.21L117.77 0.123367L124.143 0.104736Z" fill="currentColor"/>
<path d="M162 26.1225L155.588 26.1388L155.553 13.2743L156.067 9.05681H155.918L154.837 11.8514L152.002 16.8956L146.94 16.9096L144.203 11.9539L143.062 9.08243H142.914L143.45 13.4117L143.484 26.1737L137.072 26.1923L136.999 0.0698648L143.559 0.0512342L149.474 10.9688L155.369 0.0232883L161.929 0L162 26.1225Z" fill="currentColor"/>
</g>
<defs>
<clipPath id="clip0_5690_8803">
<rect width="162" height="26.6301" fill="white"/>
</clipPath>
</defs>
</svg>
