<svg width="18" height="18" viewBox="0 0 20 21" fill="none" xmlns="http://www.w3.org/2000/svg">
  <path d="M5.5 8.36731H5.51M10 8.36731H10.01M14.5 8.36731H14.51M5 15.7346V18.0288C5 18.5522 5 18.8139 5.10923 18.9483C5.20422 19.0652 5.34827 19.1333 5.50054 19.1331C5.67563 19.1329 5.88367 18.9694 6.29976 18.6424L8.68521 16.7678C9.17252 16.3849 9.41617 16.1934 9.68749 16.0573C9.9282 15.9365 10.1844 15.8482 10.4492 15.7948C10.7477 15.7346 11.0597 15.7346 11.6837 15.7346H14.2C15.8802 15.7346 16.7202 15.7346 17.362 15.4134C17.9265 15.1309 18.3854 14.6801 18.673 14.1256C19 13.4952 19 12.67 19 11.0195V5.71508C19 4.06465 19 3.23943 18.673 2.60905C18.3854 2.05455 17.9265 1.60373 17.362 1.3212C16.7202 1 15.8802 1 14.2 1H5.8C4.11984 1 3.27976 1 2.63803 1.3212C2.07354 1.60373 1.6146 2.05455 1.32698 2.60905C1 3.23943 1 4.06465 1 5.71508V11.8054C1 12.7189 1 13.1757 1.10222 13.5504C1.37962 14.5674 2.18827 15.3617 3.22354 15.6342C3.60504 15.7346 4.07003 15.7346 5 15.7346ZM6 8.36731C6 8.63856 5.77614 8.85846 5.5 8.85846C5.22386 8.85846 5 8.63856 5 8.36731C5 8.09605 5.22386 7.87615 5.5 7.87615C5.77614 7.87615 6 8.09605 6 8.36731ZM10.5 8.36731C10.5 8.63856 10.2761 8.85846 10 8.85846C9.72386 8.85846 9.5 8.63856 9.5 8.36731C9.5 8.09605 9.72386 7.87615 10 7.87615C10.2761 7.87615 10.5 8.09605 10.5 8.36731ZM15 8.36731C15 8.63856 14.7761 8.85846 14.5 8.85846C14.2239 8.85846 14 8.63856 14 8.36731C14 8.09605 14.2239 7.87615 14.5 7.87615C14.7761 7.87615 15 8.09605 15 8.36731Z" stroke="currentColor" stroke-width="2" stroke-linecap="round" stroke-linejoin="round" />
</svg>
