<svg width="38" height="38" viewBox="0 0 38 38" fill="none" xmlns="http://www.w3.org/2000/svg">
  <rect x="1" y="1" width="36" height="36" rx="18" stroke="white" stroke-width="2"/>
  <path d="M16.645 24.0312L20.3153 21.9448L23.9856 19.8584C24.2278 19.6898 24.3549 19.5213 24.3665 19.2683C24.3549 19.0152 24.2278 18.8466 23.9856 18.678L20.3153 16.5916L16.645 14.5052C16.5065 14.4208 16.3333 14.3682 16.1719 14.3682L16.1257 14.3682C15.9756 14.3682 15.8256 14.4104 15.687 14.484C15.5023 14.5896 15.3753 14.7475 15.3061 14.9267C15.2485 15.1059 15.2485 15.306 15.3407 15.4852C15.5485 15.9277 15.9178 16.4546 16.2295 17.0869C16.5527 17.7086 16.8182 18.4357 16.8182 19.2683C16.8182 20.1008 16.5527 20.8278 16.2295 21.4495C15.9178 22.0818 15.5485 22.6087 15.3407 23.0512C15.2485 23.2304 15.2485 23.4306 15.3061 23.6097C15.3753 23.7889 15.5023 23.9469 15.687 24.0524C15.8256 24.126 15.9756 24.1682 16.1257 24.1682L16.1719 24.1682C16.3333 24.1682 16.5065 24.1156 16.645 24.0312Z" fill="white"/>
</svg>
