<svg width="27" height="22" viewBox="0 0 27 22" fill="none" xmlns="http://www.w3.org/2000/svg">
<path d="M15.788 3.26986C13.4537 4.2408 8.78825 6.25039 1.79176 9.29865C0.655643 9.75044 0.0604935 10.1924 0.00631428 10.6246C-0.0852499 11.355 0.8294 11.6426 2.07492 12.0342L2.0751 12.0343C2.24447 12.0876 2.41995 12.1427 2.59985 12.2012C3.82525 12.5995 5.47363 13.0656 6.33055 13.0841C7.10787 13.1009 7.97543 12.7804 8.93326 12.1227C15.4703 7.71 18.8447 5.47962 19.0566 5.43154C19.2061 5.39762 19.4132 5.35496 19.5535 5.47969C19.6938 5.60442 19.68 5.84064 19.6652 5.90401C19.5746 6.29028 15.9842 9.62817 14.1262 11.3555L14.1262 11.3556L14.1261 11.3556C13.547 11.8941 13.1361 12.276 13.0521 12.3633C12.864 12.5587 12.6722 12.7435 12.488 12.9212L12.4879 12.9212C11.3495 14.0187 10.4958 14.8416 12.5352 16.1856C13.5153 16.8314 14.2995 17.3655 15.0819 17.8983L15.0819 17.8983C15.9363 18.4802 16.7886 19.0605 17.8912 19.7833C18.1721 19.9675 18.4404 20.1588 18.7018 20.3451C19.6961 21.054 20.5895 21.6908 21.6932 21.5893C22.3345 21.5303 22.9969 20.9272 23.3333 19.1287C24.1284 14.8783 25.6912 5.66891 26.0524 1.87395C26.0841 1.54146 26.0443 1.11594 26.0123 0.92915C25.9803 0.742357 25.9135 0.476217 25.6707 0.279201C25.3832 0.0458753 24.9392 -0.0033276 24.7407 0.000169524C23.838 0.0160711 22.4531 0.497636 15.788 3.26986Z" fill="currentColor"/>
</svg>

