<svg width="20" height="21" viewBox="0 0 20 21" fill="none" xmlns="http://www.w3.org/2000/svg">
<path d="M17.7441 19.5C17.7441 18.1044 17.7441 17.4067 17.5719 16.8389C17.1841 15.5605 16.1837 14.56 14.9053 14.1722C14.3375 14 13.6397 14 12.2441 14H7.24414C5.84858 14 5.15079 14 4.583 14.1722C3.3046 14.56 2.30418 15.5605 1.91638 16.8389C1.74414 17.4067 1.74414 18.1044 1.74414 19.5M14.2441 6C14.2441 8.48528 12.2294 10.5 9.74414 10.5C7.25886 10.5 5.24414 8.48528 5.24414 6C5.24414 3.51472 7.25886 1.5 9.74414 1.5C12.2294 1.5 14.2441 3.51472 14.2441 6Z" stroke="black" stroke-width="2" stroke-linecap="round" stroke-linejoin="round"/>
</svg>
